<?xml version="1.0" standalone="no"?>
<!DOCTYPE svg PUBLIC "-//W3C//DTD SVG 20010904//EN"
 "http://www.w3.org/TR/2001/REC-SVG-20010904/DTD/svg10.dtd">
<svg version="1.0" xmlns="http://www.w3.org/2000/svg"
 width="500.000000pt" height="500.000000pt" viewBox="0 0 500.000000 500.000000"
 preserveAspectRatio="xMidYMid meet">

<g transform="translate(0.000000,500.000000) scale(0.100000,-0.100000)"
fill="#000000" stroke="none">
<path d="M1970 3500 l0 -390 95 0 95 0 0 295 0 295 125 0 125 0 0 -295 0 -295
95 0 95 0 0 295 0 295 130 0 130 0 0 -295 0 -295 95 0 95 0 -2 388 -3 387
-537 3 -538 2 0 -390z"/>
<path d="M3160 3500 l0 -390 390 0 390 0 0 240 0 240 -170 0 -170 0 0 -95 0
-95 75 0 75 0 0 -50 0 -50 -200 0 -200 0 0 200 0 200 295 0 295 0 0 95 0 95
-390 0 -390 0 0 -390z"/>
<path d="M1004 3815 c-16 -11 -17 -16 -5 -38 9 -16 11 -39 6 -66 -8 -48 10
-62 51 -41 13 8 27 10 31 7 3 -4 1 -7 -5 -7 -19 0 -14 -38 7 -49 14 -8 22 -7
31 4 9 11 33 15 81 15 39 0 69 4 69 10 0 6 -29 10 -67 10 -38 0 -75 5 -83 10
-10 7 11 10 68 10 48 0 82 4 82 10 0 6 -41 10 -103 10 -67 0 -107 4 -115 12
-15 15 -16 50 -2 64 13 13 4 40 -15 48 -7 2 -21 -1 -31 -9z"/>
<path d="M907 3619 c-22 -13 -22 -30 2 -60 10 -14 21 -35 23 -48 5 -35 35 -51
53 -28 17 24 9 46 -22 58 -14 5 -23 15 -20 22 3 9 46 13 158 15 84 1 157 6
162 11 4 4 -63 11 -149 15 -86 4 -164 11 -173 16 -10 5 -24 4 -34 -1z"/>
<path d="M1080 2605 l0 -245 295 0 295 0 0 -50 0 -50 -295 0 -295 0 0 -95 0
-95 390 0 390 0 0 240 0 240 -295 0 -295 0 0 55 0 55 295 0 295 0 0 95 0 95
-390 0 -390 0 0 -245z"/>
<path d="M3160 2460 l0 -390 390 0 390 0 0 240 0 240 -170 0 -170 0 0 -95 0
-95 75 0 75 0 0 -50 0 -50 -200 0 -200 0 0 200 0 200 295 0 295 0 0 95 0 95
-390 0 -390 0 0 -390z"/>
<path d="M2434 2356 c-7 -18 12 -46 31 -46 18 0 27 -28 12 -37 -7 -4 -81 -8
-164 -8 -93 0 -154 -4 -155 -10 -2 -6 31 -11 81 -13 75 -3 82 -4 65 -17 -12
-9 -44 -14 -87 -15 -43 0 -66 -4 -62 -10 3 -5 33 -10 65 -10 93 0 106 -14 17
-20 -115 -7 -100 -24 27 -30 101 -5 109 -7 117 -27 5 -13 4 -25 -1 -28 -16
-10 -11 -52 7 -59 9 -4 23 0 32 8 12 13 13 19 2 40 -9 15 -11 38 -6 65 6 34 4
42 -10 48 -10 3 -26 1 -36 -5 -27 -17 -31 -15 -17 9 11 17 10 22 -6 35 -18 13
-12 14 55 14 43 0 80 -5 87 -12 8 -8 15 -8 27 2 20 16 19 26 -4 59 -10 14 -21
37 -22 51 -5 30 -45 41 -55 16z"/>
<path d="M1080 1575 l0 -245 295 0 295 0 0 -50 0 -50 -295 0 -295 0 0 -95 0
-95 390 0 390 0 0 240 0 240 -295 0 -295 0 0 55 0 55 295 0 295 0 0 95 0 95
-390 0 -390 0 0 -245z"/>
<path d="M1970 1430 l0 -390 95 0 95 0 0 295 0 295 125 0 125 0 0 -295 0 -295
95 0 95 0 0 295 0 295 130 0 130 0 0 -295 0 -295 95 0 95 0 -2 388 -3 387
-537 3 -538 2 0 -390z"/>
<path d="M3307 1570 c-14 -11 -34 -20 -45 -20 -25 0 -44 -23 -36 -44 10 -25
43 -19 54 10 7 16 16 24 28 22 15 -3 17 -20 20 -166 1 -97 6 -162 12 -162 6 0
10 61 10 155 0 100 4 162 12 174 13 22 5 51 -15 51 -8 0 -26 -9 -40 -20z"/>
<path d="M3515 1480 c-5 -8 -23 -9 -55 -5 -53 7 -70 -8 -45 -42 20 -25 18 -36
-3 -24 -23 12 -52 -4 -52 -29 0 -11 5 -20 10 -20 6 0 10 -30 10 -69 0 -67 11
-98 24 -65 3 9 6 42 6 74 0 32 5 62 10 65 6 4 10 -24 10 -76 0 -121 19 -86 22
41 l3 105 55 0 c52 0 55 1 55 25 0 18 -6 26 -22 28 -11 2 -24 -2 -28 -8z"/>
</g>
</svg>
